<svg width="48" height="48" viewBox="0 0 48 48" fill="none" xmlns="http://www.w3.org/2000/svg">
  <rect width="48" height="48" rx="24" fill="#E5E7EB"/>
  <path d="M24 12C20.686 12 18 14.686 18 18C18 21.314 20.686 24 24 24C27.314 24 30 21.314 30 18C30 14.686 27.314 12 24 12ZM24 22C21.79 22 20 20.21 20 18C20 15.79 21.79 14 24 14C26.21 14 28 15.79 28 18C28 20.21 26.21 22 24 22Z" fill="#9CA3AF"/>
  <path d="M24 25C18.617 25 14 29.617 14 35C14 35.552 14.448 36 15 36H33C33.552 36 34 35.552 34 35C34 29.617 29.383 25 24 25ZM16.063 34C16.521 30.121 19.925 27 24 27C28.075 27 31.479 30.121 31.937 34H16.063Z" fill="#9CA3AF"/>
</svg> 